<svg width="272" height="300" viewBox="0 0 272 300" fill="none" xmlns="http://www.w3.org/2000/svg">
<path d="M203.709 63.3152C214.284 63.3152 222.85 54.0641 222.85 42.5466V20.8097C222.85 9.28196 214.293 0 203.709 0C193.124 0 184.577 9.27166 184.577 20.8097V42.5569C184.587 54.0641 193.134 63.3152 203.709 63.3152Z" fill="white"/>
<path d="M271.706 35.9946H233.178V46.5746C233.178 64.0362 220.13 78.263 204.04 78.263C187.932 78.263 174.912 64.0362 174.912 46.5746V35.9946H97.1638V46.5746C97.1638 64.0362 84.0968 78.263 68.0166 78.263C51.9363 78.263 38.8788 64.0465 38.8788 46.5746V35.9946L0 35.4692V300H19.4441H252.584L272 299.938L271.706 35.9946ZM252.565 278.933H19.4441V109.941H252.584V278.933H252.565Z" fill="white"/>
<path d="M67.7133 63.3152C78.2882 63.3152 86.8637 54.0641 86.8637 42.5466V20.8097C86.8637 9.27166 78.2882 0 67.7133 0C57.1384 0 48.5913 9.27166 48.5913 20.8097V42.5569C48.5913 54.0641 57.1289 63.3152 67.7133 63.3152Z" fill="white"/>
<path d="M127.837 132.616H97.2208V161.996H127.837V132.616Z" fill="white"/>
<path d="M177.366 132.616H146.722V161.996H177.366V132.616Z" fill="white"/>
<path d="M223.247 132.616H192.631V161.996H223.247V132.616Z" fill="white"/>
<path d="M127.837 181.405H97.2208V210.765H127.837V181.405Z" fill="white"/>
<path d="M177.366 181.405H146.722V210.765H177.366V181.405Z" fill="white"/>
<path d="M223.247 181.405H192.631V210.765H223.247V181.405Z" fill="white"/>
<path d="M127.837 231.163H97.2208V260.524H127.837V231.163Z" fill="white"/>
<path d="M79.1883 181.405H48.5913V210.765H79.1883V181.405Z" fill="white"/>
<path d="M79.1883 231.163H48.5913V260.524H79.1883V231.163Z" fill="white"/>
<path d="M177.366 231.163H146.722V260.524H177.366V231.163Z" fill="white"/>
<path d="M223.247 231.163H192.631V260.524H223.247V231.163Z" fill="white"/>
</svg>
