<svg width="256" height="256" viewBox="0 0 256 256" fill="none" xmlns="http://www.w3.org/2000/svg">
<path d="M37.5 256H218.5C239.178 256 256 239.178 256 218.5V37.5C256 16.8223 239.178 0 218.5 0H37.5C16.8223 0 0 16.8223 0 37.5V218.5C0 239.178 16.8223 256 37.5 256ZM15 37.5C15 25.0938 25.0938 15 37.5 15H218.5C230.906 15 241 25.0938 241 37.5V218.5C241 230.906 230.906 241 218.5 241H37.5C25.0938 241 15 230.906 15 218.5V37.5Z" fill="#6E36AE"/>
<path d="M128 195.5C165.219 195.5 195.5 165.219 195.5 128C195.5 90.7812 165.219 60.5 128 60.5C90.7812 60.5 60.5 90.7812 60.5 128C60.5 165.219 90.7812 195.5 128 195.5ZM128 75.5C156.949 75.5 180.5 99.0508 180.5 128C180.5 156.949 156.949 180.5 128 180.5C99.0508 180.5 75.5 156.949 75.5 128C75.5 99.0508 99.0508 75.5 128 75.5Z" fill="#6E36AE"/>
<path d="M203 75.5C215.406 75.5 225.5 65.4062 225.5 53C225.5 40.5938 215.406 30.5 203 30.5C190.594 30.5 180.5 40.5938 180.5 53C180.5 65.4062 190.594 75.5 203 75.5ZM203 45.5C207.135 45.5 210.5 48.8652 210.5 53C210.5 57.1348 207.135 60.5 203 60.5C198.865 60.5 195.5 57.1348 195.5 53C195.5 48.8652 198.865 45.5 203 45.5Z" fill="#6E36AE"/>
</svg>
