<svg width="512" height="512" viewBox="0 0 512 512" fill="none" xmlns="http://www.w3.org/2000/svg">
<path d="M255.991 213.333C291.346 213.333 319.991 184.689 319.991 149.334C319.991 113.979 291.346 85.3335 255.991 85.3335C220.636 85.3335 191.991 113.979 191.991 149.334C191.991 184.689 220.636 213.333 255.991 213.333ZM255.991 128C267.782 128 277.324 137.543 277.324 149.334C277.324 161.125 267.782 170.666 255.991 170.666C244.2 170.666 234.658 161.125 234.658 149.334C234.658 137.543 244.2 128 255.991 128Z" fill="white"/>
<path d="M228.229 397.513L236.91 414.875C244.773 430.601 267.215 430.598 275.074 414.871L293.463 378.07C311.929 341.168 329.402 312.049 369.226 249.451L370.262 247.822C376.114 238.623 378.943 234.171 382.304 228.861C397.26 205.238 405.324 177.869 405.324 149.334C405.324 60.3025 327.974 -9.1865 238.538 0.991499C171.99 8.5825 117.35 61.8265 108.14 128.117C102.629 167.799 112.744 206.51 135.666 237.633C166.5 279.43 190.243 321.569 228.229 397.513ZM150.402 133.986C156.93 86.9975 196.162 48.7685 243.369 43.3835C307.424 36.0935 362.658 85.7135 362.658 149.334C362.658 169.724 356.923 189.189 346.255 206.04C342.915 211.316 340.1 215.748 334.264 224.92L333.228 226.549C293.08 289.658 275.044 319.672 255.948 357.702C222.752 292.339 199.677 252.532 170.013 212.318C153.636 190.081 146.437 162.532 150.402 133.986Z" fill="white"/>
<path d="M388.88 313.035C377.416 310.316 365.919 317.405 363.2 328.869C360.481 340.333 367.571 351.831 379.035 354.549C436.247 368.116 469.333 389.823 469.333 405.322C469.333 434.8 374.384 469.322 256 469.322C137.602 469.322 42.667 434.804 42.667 405.322C42.667 389.814 75.72 368.113 132.903 354.549C144.367 351.83 151.456 340.332 148.737 328.868C146.018 317.404 134.52 310.315 123.056 313.035C48.205 330.79 0 362.44 0 405.324C0 470.128 115.134 511.99 256 511.99C396.853 511.99 512 470.126 512 405.324C512 362.439 463.765 330.792 388.88 313.035Z" fill="white"/>
</svg>
