<svg width="447" height="481" viewBox="0 0 447 481" fill="none" xmlns="http://www.w3.org/2000/svg">
<path d="M70.0149 446.159C61.5465 456.52 49.7781 463.235 36.9442 465.028L38.8236 480.937C55.0352 478.811 69.9631 470.514 80.8214 457.593L100.718 478.651C102.886 480.945 106.141 481.63 108.975 480.389C111.806 479.148 113.652 476.223 113.652 472.981V400.186L128.372 428.746C133.308 438.324 142.372 444.726 152.619 445.869C153.707 445.991 154.802 446.053 155.901 446.053C165.058 446.065 173.763 441.84 179.73 434.49C186.523 426.099 188.924 414.678 186.138 404.027C183.352 393.377 175.738 384.892 165.831 381.395L159.871 379.284L425.058 351.926C427.396 351.683 429.494 350.305 430.74 348.195C431.987 346.088 432.239 343.488 431.421 341.154L429.904 336.839C424.103 320.265 417.488 304.089 410.208 288.302C416.297 287.659 421.78 284.128 425.113 278.693C428.443 273.258 429.26 266.515 427.329 260.372C426.308 257.043 425.017 253.786 423.866 250.489L444.558 230.284C446.116 228.765 447 226.627 447 224.387C447 222.148 446.116 220.014 444.558 218.494L423.881 198.302C425.035 195.005 426.301 191.751 427.329 188.415C429.342 181.868 428.273 174.698 424.455 169.123C420.637 163.551 414.529 160.246 408.025 160.234H390.437L413.282 136.047C418.065 130.989 420.304 123.831 419.32 116.747C418.339 109.668 414.251 103.493 408.299 100.098L401.243 96.0888H401.569V64.0044C401.569 59.5758 398.176 55.9852 393.992 55.9852H365.254L359.897 45.4327C356.689 39.1325 350.855 34.8058 344.166 33.7642C337.473 32.7266 330.711 35.0955 325.931 40.1584L303.071 64.3411V41.1334C303.06 34.2537 299.937 27.789 294.673 23.7481C289.412 19.7072 282.638 18.5756 276.452 20.7018C273.308 21.7746 270.233 23.1059 267.118 24.3589L248.025 2.46683C246.556 0.888841 244.551 0 242.457 0C240.363 0 238.358 0.888841 236.889 2.46683L217.899 24.2141C214.773 22.9885 211.643 21.7668 208.469 20.6704C202.275 18.5404 195.494 19.6759 190.23 23.7246C184.961 27.7733 181.843 34.2458 181.843 41.1334V41.5523C170.703 35.5066 159.423 29.7311 147.836 24.543C147.754 24.543 147.669 24.543 147.588 24.543C146.626 24.1358 145.594 23.9517 144.558 23.9987H144.155C143.211 24.0848 142.29 24.355 141.443 24.8014C141.35 24.8562 141.276 24.9267 141.184 24.9854C141.095 25.0403 141.095 24.9854 141.058 24.9854C141.018 24.9854 140.951 25.1107 140.881 25.1616C139.982 25.7529 139.205 26.536 138.609 27.464C138.609 27.5345 138.55 27.605 138.502 27.6794C137.899 28.6739 137.51 29.8016 137.366 30.9763L103.803 329.341L98.9901 310.683C95.4866 297.088 83.8366 287.648 70.5254 287.609C57.2106 287.573 45.5162 296.951 41.9423 310.523C38.3722 324.098 43.8069 338.523 55.2202 345.775L78.7237 360.713H7.5768C4.51353 360.713 1.74993 362.667 0.577161 365.666C-0.595611 368.661 0.0518184 372.107 2.21978 374.402L45.5975 420.312C31.6242 428.457 15.9527 432.779 2.36637e-05 432.885V448.923C20.0296 448.845 39.6745 443.097 56.8924 432.27L70.0149 446.159ZM161.036 396.576C167.936 399 172.468 405.993 172.124 413.679C171.776 421.365 166.637 427.869 159.552 429.588C152.464 431.307 145.161 427.826 141.687 421.068L122.138 383.169L122.79 383.094L161.036 396.576ZM417.821 214.171L428.276 224.387L417.821 234.603C416.382 231.204 414.917 227.813 413.352 224.477C414.95 221.083 416.367 217.621 417.821 214.171ZM412.213 270.243C411.247 271.668 409.686 272.514 408.025 272.502H402.546C400.03 267.459 397.514 262.416 394.847 257.466C398.173 252.376 401.365 247.211 404.333 241.925C407.577 249.553 410.448 257.349 412.934 265.286C413.474 266.962 413.204 268.814 412.213 270.243ZM408.025 176.272C409.682 176.276 411.24 177.114 412.213 178.536C413.186 179.953 413.459 181.782 412.949 183.45C406.512 204.163 397.54 223.894 386.264 242.145C374.51 221.885 361.521 202.464 347.381 183.994C355.812 183.152 364.003 180.529 371.458 176.272H408.025ZM401.114 114.222C402.849 115.213 404.04 117.014 404.325 119.081C404.61 121.145 403.959 123.232 402.568 124.712L386.467 141.792C388.524 134.775 389.26 127.398 388.635 120.084C388.18 115.299 387.422 110.549 386.364 105.874L401.114 114.222ZM386.415 72.0235V87.6311L378.92 83.3631C378.262 81.9182 377.695 80.4381 376.967 79.0168L373.415 72.0235H386.415ZM309.823 79.8743L336.637 51.494C338.032 50.0296 339.993 49.3405 341.939 49.6341C343.896 49.9278 345.598 51.1925 346.53 53.0368L363.615 86.6209C369.124 97.4123 372.498 109.277 373.533 121.493C374.795 133.733 370.437 145.872 361.813 154.134C353.678 162.016 342.727 165.798 331.765 164.51C320.566 151.181 308.772 138.448 296.389 126.305C293.297 109.429 298.328 92.0283 309.823 79.8743ZM413.744 336.945L149.134 364.249C193.382 337.482 226.556 294.148 242.124 242.783C264.203 166.82 232.941 108.063 200.762 70.8293C298.051 131.611 373.097 225.382 413.744 336.945ZM281.099 35.9374C282.679 35.3813 284.418 35.6633 285.768 36.697C287.118 37.7307 287.921 39.387 287.917 41.149V66.154C278.783 58.4286 269.164 51.3727 259.127 45.0333C266.297 41.6071 273.633 38.5726 281.099 35.9374ZM242.457 19.6994L252.109 30.7649C248.898 32.288 245.683 33.8151 242.531 35.4714C239.356 33.8034 236.167 32.1549 232.927 30.62L242.457 19.6994ZM196.996 41.1334C197 39.3753 197.799 37.719 199.149 36.6931C200.5 35.6633 202.235 35.3813 203.814 35.9374C234.54 46.5839 262.897 63.7381 287.159 86.3546C283.478 94.1662 281.258 102.655 280.629 111.36C254.736 88.0266 226.719 67.4658 196.996 49.9787V41.1334ZM150.966 45.6402C168.82 58.7692 184.861 74.4629 198.624 92.2711C232.901 137.324 242.66 186.379 227.636 238.068C205.217 315.182 143.019 351.499 116.319 363.92L115.198 363.52L150.966 45.6402ZM79.1233 433.12L69.8114 423.264C77.7729 416.96 85.161 409.889 91.8832 402.14C88.8606 412.986 84.5728 423.394 79.1233 433.12ZM98.4981 453.622L90.1629 444.804C93.2927 439.757 96.0785 434.487 98.4981 429.02V453.622ZM62.993 332.023C57.4288 328.48 54.7836 321.443 56.5261 314.826C58.2687 308.209 63.9734 303.635 70.4662 303.651C76.959 303.67 82.6416 308.271 84.3508 314.9L93.7996 351.589L62.993 332.023ZM25.8676 376.751H91.9054C82.6379 390.107 71.4947 401.885 58.8643 411.674L25.8676 376.751Z" fill="white"/>
</svg>
