<svg width="480" height="480" viewBox="0 0 480 480" fill="none" xmlns="http://www.w3.org/2000/svg">
<path d="M240 0C107.452 0 0 107.452 0 240C0 372.548 107.452 480 240 480C372.548 480 480 372.548 480 240C479.85 107.514 372.486 0.15 240 0ZM240 464C116.288 464 16 363.712 16 240C16 116.288 116.288 16 240 16C363.712 16 464 116.288 464 240C463.859 363.653 363.653 463.859 240 464Z" fill="white"/>
<path d="M240 40C129.543 40 40 129.543 40 240C40 350.457 129.543 440 240 440C350.457 440 440 350.457 440 240C439.877 129.594 350.406 40.123 240 40ZM240 424C138.38 424 56 341.62 56 240C56 138.38 138.38 56 240 56C341.62 56 424 138.38 424 240C423.885 341.573 341.573 423.885 240 424Z" fill="white"/>
<path d="M248 80H232V96H248V80Z" fill="white"/>
<path d="M248 384H232V400H248V384Z" fill="white"/>
<path d="M166.908 97.4446L153.061 105.442L161.059 119.29L174.906 111.292L166.908 97.4446Z" fill="white"/>
<path d="M318.872 360.666L305.025 368.664L313.023 382.511L326.87 374.514L318.872 360.666Z" fill="white"/>
<path d="M105.429 153.072L97.4288 166.928L111.285 174.928L119.285 161.072L105.429 153.072Z" fill="white"/>
<path d="M368.673 305.099L360.673 318.955L374.529 326.955L382.529 313.099L368.673 305.099Z" fill="white"/>
<path d="M96 232H80V248H96V232Z" fill="white"/>
<path d="M400 232H384V248H400V232Z" fill="white"/>
<path d="M111.291 305.084L97.4334 313.083L105.432 326.94L119.289 318.942L111.291 305.084Z" fill="white"/>
<path d="M374.527 153.072L360.671 161.072L368.671 174.928L382.527 166.928L374.527 153.072Z" fill="white"/>
<path d="M161.018 360.696L153.02 374.543L166.868 382.541L174.866 368.694L161.018 360.696Z" fill="white"/>
<path d="M313.059 97.4596L305.062 111.307L318.909 119.305L326.907 105.457L313.059 97.4596Z" fill="white"/>
<path d="M232 112V235.472L155.88 281.144L164.12 294.856L244.12 246.856C246.527 245.41 248 242.808 248 240V112H232Z" fill="white"/>
</svg>
