<svg width="262" height="262" viewBox="0 0 262 262" fill="none" xmlns="http://www.w3.org/2000/svg">
<path d="M63.3672 243.304C83.61 255.486 106.755 261.906 130.536 261.906C202.599 261.906 262 203.102 262 130.952C262 58.8856 202.683 0 130.536 0C58.6098 0 0.0939485 58.7457 0.0939485 130.952C0.0939485 155.051 6.51642 178.372 18.6957 198.631L0 262L63.3672 243.304ZM15.4415 130.952C15.4415 67.2071 67.0731 15.3456 130.536 15.3456C194.563 15.3456 246.654 67.2071 246.654 130.952C246.654 194.699 194.563 246.558 130.536 246.558C108.504 246.558 87.0941 240.318 68.6263 228.508L65.6759 226.623L22.6975 239.304L35.3766 196.324L33.4916 193.376C21.6821 174.904 15.4415 153.32 15.4415 130.952Z" fill="#6E36AE"/>
<path d="M64.7686 106.81C67.2705 120.211 74.6972 145.988 96.3203 168.043C117.943 190.098 143.215 197.675 156.356 200.227C171.403 203.149 193.483 203.59 204.274 192.583L210.29 186.447C213.327 183.35 215 179.23 215 174.849C215 170.468 213.327 166.35 210.29 163.253L186.232 138.714C183.194 135.615 179.157 133.91 174.861 133.91C170.566 133.91 166.529 135.615 163.49 138.714L157.476 144.848C153.803 148.596 146.867 148.612 143.166 144.895L119.169 119.392C119.133 119.354 119.098 119.316 119.06 119.279C115.38 115.526 115.38 109.418 119.06 105.665L125.074 99.5304C131.361 93.1185 131.361 82.7439 125.074 76.334L101.016 51.7953C94.7478 45.4016 84.5469 45.4016 78.2764 51.7953L72.2624 57.9315V57.9295C63.6499 66.7162 60.779 85.4447 64.7686 106.81ZM82.9743 68.8575C89.2882 62.5644 88.9508 62.4436 89.6473 62.4436C89.8861 62.4436 90.1248 62.5362 90.3064 62.7213C115.657 88.7171 114.639 87.1896 114.639 87.9342C114.639 88.1939 114.546 88.4213 114.366 88.6064L108.35 94.7406C98.7709 104.511 98.7334 120.328 108.289 130.143L132.3 155.662C132.337 155.698 132.373 155.736 132.41 155.774C141.988 165.543 158.579 165.575 168.188 155.774L174.202 149.64C174.565 149.27 175.157 149.27 175.52 149.64C200.871 175.634 199.853 174.106 199.853 174.851C199.853 175.113 199.76 175.338 199.58 175.523L193.564 181.657C189.443 185.862 176.314 188.377 159.189 185.051C147.761 182.829 125.787 176.248 107.032 157.119C88.278 137.99 81.826 115.576 79.6497 103.92C76.3862 86.453 78.8525 73.0597 82.9743 68.8575Z" fill="#6E36AE"/>
</svg>
