<svg id="Outline" height="512" viewBox="0 0 512 512" width="512" xmlns="http://www.w3.org/2000/svg"><path d="m50.376 138.311a8 8 0 0 0 -2.29 6.861c.185 1.242 4.669 30.846 18.834 68.468 22.341 59.333 52.011 93.749 74.412 112.786-9.907 31.168-6 62.526 11.722 93.543a8 8 0 0 0 10.195 3.342l10.72-4.765c-9.264 19.895-13.969 43.137-13.969 69.454a8 8 0 0 0 8 8h176a8 8 0 0 0 8-8c0-26.317-4.7-49.559-13.969-69.454l10.72 4.765a8 8 0 0 0 10.2-3.342c17.725-31.019 21.63-62.378 11.721-93.548 38.642-32.774 61.732-79.1 74.413-112.78 14.165-37.623 18.649-67.227 18.834-68.469a8 8 0 0 0 -9.178-9.071q-5.615.9-11.233 1.74c3-29.094-8.666-60.362-11.546-67.527a55.982 55.982 0 0 0 -111.914 0c-.821 2.041-2.347 6.015-4.043 11.326-1.7-5.31-3.222-9.285-4.043-11.326a55.982 55.982 0 0 0 -111.914 0c-.821 2.041-2.347 6.015-4.043 11.326-1.7-5.311-3.222-9.285-4.043-11.326a55.982 55.982 0 0 0 -111.914 0c-2.88 7.165-14.552 38.428-11.547 67.527q-5.619-.847-11.232-1.74a8 8 0 0 0 -6.893 2.21zm113.153 267.366c-15.45-30.671-15.45-60.684 0-91.354l60.471 26.877v9.042l-30.431-6.086a8 8 0 1 0 -3.138 15.69l33.569 6.713v12.241zm12.631 74.323c1.174-28.967 8.832-53.322 22.772-72.549l34.768-15.451h44.6l34.764 15.451c13.942 19.226 21.6 43.581 22.774 72.549zm63.84-104v-32h32v32zm108.471 29.677-60.471-26.877v-12.241l33.569-6.714a8 8 0 1 0 -3.138-15.69l-30.431 6.086v-9.041l60.471-26.876c15.45 30.67 15.45 60.683 0 91.353zm78.587-265.477q-16.1 2.212-32.227 4.008a97.81 97.81 0 0 0 -6.109-17.687 56.185 56.185 0 0 0 35.747-26.521c2.822 12.088 4.82 26.861 2.589 40.2zm-90.253-76.2a40.067 40.067 0 0 0 39.195 32 24 24 0 0 0 0-48 8 8 0 0 0 0 16 8 8 0 0 1 0 16 24 24 0 0 1 0-48 39.983 39.983 0 1 1 -39.195 32zm-10.242 40.494q.464-2.293.976-4.486a56.06 56.06 0 0 0 43.637 27.771c1.491 2.19 4.726 7.755 7.56 18.12q-25.594 2.515-51.237 3.974c-5.347-14.364-3.583-32.282-.936-45.379zm119.458 49.153c-6.124 28.721-27.256 107.963-81.576 156.972q-2.487-5.3-5.5-10.588a8 8 0 0 0 -10.2-3.342l-70.445 31.311h-14.512c-2.008-38.136-10.392-74.215-24.975-107.319a275.44 275.44 0 0 0 -31.16-53.681 1272.058 1272.058 0 0 0 238.368-13.353zm-140.557-49.018c2.707 13.458 4.473 31.883-1.372 46.366q-13.7.525-27.408.745a110.8 110.8 0 0 0 -7.547-25.312 56.187 56.187 0 0 0 35.325-26.421q.524 2.253 1.002 4.622zm-88.659-40.629a40.067 40.067 0 0 0 39.195 32 24 24 0 0 0 0-48 8 8 0 0 0 0 16 8 8 0 0 1 0 16 24 24 0 0 1 0-48 39.983 39.983 0 1 1 -39.195 32zm-10.242 40.494q.464-2.293.976-4.486a56.047 56.047 0 0 0 44.3 27.821c2.1 3.386 5.8 10.8 8.569 24.074q-26.246.092-52.485-.908c-5.874-14.542-4.076-33.062-1.36-46.501zm-21.185-.29c2.692 13.187 4.5 31.226-.877 45.669q-14.406-.822-28.8-1.968a102.709 102.709 0 0 0 -6.977-21.381 56.174 56.174 0 0 0 35.738-26.516q.476 2.051.916 4.192zm-88.573-40.204a40.067 40.067 0 0 0 39.195 32 24 24 0 0 0 0-48 8 8 0 0 0 0 16 8 8 0 0 1 0 16 24 24 0 0 1 0-48 39.983 39.983 0 1 1 -39.195 32zm-9.26 36.02a56.06 56.06 0 0 0 43.609 27.757c1.579 2.307 4.874 8.006 7.725 18.653q-27-2.531-53.935-6.225c-2.221-13.305-.221-28.081 2.601-40.185zm98.961 65.994c22.084 26.478 56.721 80.448 61.255 161.986h-14.061l-70.449-31.311a8 8 0 0 0 -10.195 3.342q-3.021 5.287-5.5 10.588c-54.321-49.009-75.456-128.253-81.577-156.972q60.072 9.066 120.527 12.367z"/></svg>