<svg width="256" height="256" viewBox="0 0 256 256" fill="none" xmlns="http://www.w3.org/2000/svg">
<path d="M128 0C57.6504 0 0 58.1504 0 128.5C0 198.441 57.125 256 128 256C198.787 256 256 198.527 256 128.5C256 58.1504 198.35 0 128 0ZM150.5 238.75C143.301 240.25 135.65 241 128 241C120.35 241 112.699 240.25 105.5 238.75V203.65C105.5 195.25 107.75 192.25 110.75 188.199C112.277 186.453 113.199 184.887 120.049 174.551L108.5 172.75C78.7988 168.4 67.0996 152.949 62.4492 140.949C56.4492 124.9 59.5996 104.799 70.4004 92.0508C72.0508 90.0996 73.4004 86.7988 72.2012 83.3496C69.9492 76.4492 70.25 65.5 71.75 61.2988C79.7031 62.4355 87.8809 68.1328 94.7012 72.25C97.8437 74.084 99.4922 73.5996 101 73.75C106.48 72.6094 115.029 69.8496 128.15 69.8496C136.25 69.8496 144.801 71.0488 153.201 73.4492C154.703 73.4141 157.117 74.6914 161.301 72.25C168.43 67.9062 176.33 62.4043 184.25 61.2988C185.75 65.5 186.051 76.4492 183.801 83.3496C182.6 86.7988 183.949 90.0996 185.602 92.0508C196.4 104.801 199.551 124.9 193.551 140.949C188.9 152.949 177.201 168.4 147.5 172.75L135.951 174.551C143.031 185.234 143.777 186.516 145.252 188.199C148.25 192.25 150.5 195.25 150.5 203.65V238.75ZM165.5 234.4V203.65C165.5 195.1 163.699 189.4 161.299 185.199C184.1 179.051 200.301 165.549 207.5 146.199C215.15 125.801 211.701 101.5 198.949 84.6992C201.201 74.6504 201.201 58.5996 195.801 51.0996C193.4 47.8008 190.1 46 185.9 46C185.75 46 185.75 46 185.75 46C174.119 46.6289 164.965 52.4863 155.15 58.4492C146.15 56.0488 137 54.8496 127.85 54.8496C118.551 54.8496 109.25 56.1992 101.002 58.4492C90.6699 52.2187 81.6035 46.6133 69.6504 46C65.9004 46 62.5996 47.8008 60.1992 51.0996C54.8008 58.5996 54.8008 74.6504 57.0508 84.6992C44.2988 101.5 40.8496 125.949 48.5 146.199C55.6992 165.549 71.9004 179.051 94.7012 185.199C92.8398 188.455 91.3672 192.656 90.7871 198.342C86.1816 199.93 82.1875 200.447 78.4727 199.355C74.5547 198.197 71.502 195.582 68.8496 191.121C62.8926 181.113 52.7461 172.943 41.1934 174.006L42.5117 188.947C47.8613 188.457 53.1855 194.117 55.9512 198.783C60.5137 206.467 66.6602 211.506 74.2246 213.74C79.8398 215.395 84.9727 215.355 90.5 214.176V234.4C46.8496 219.1 15 177.4 15 128.5C15 66.4004 65.9004 15 128 15C190.1 15 241 66.4004 241 128.5C241 177.4 209.15 219.1 165.5 234.4Z" fill="black"/>
</svg>
