<svg width="302" height="302" viewBox="0 0 302 302" fill="none" xmlns="http://www.w3.org/2000/svg">
<path d="M3.6289 116.754C8.58203 142.766 23.2851 192.797 66.0937 235.605C108.902 278.414 158.934 293.121 184.949 298.074C214.738 303.746 258.453 304.602 279.816 283.238L291.727 271.328C297.738 265.316 301.051 257.32 301.051 248.816C301.051 240.312 297.738 232.32 291.727 226.309L244.098 178.68C238.082 172.664 230.09 169.355 221.586 169.355C213.082 169.355 205.09 172.664 199.074 178.68L187.168 190.586C179.895 197.859 166.164 197.891 158.836 190.676L111.328 141.176C111.258 141.102 111.187 141.027 111.113 140.957C103.828 133.672 103.828 121.816 111.113 114.531L123.02 102.625C135.465 90.1797 135.465 70.043 123.02 57.6016L75.3906 9.97266C62.9805 -2.4375 42.7852 -2.4375 30.3711 9.97266L18.4648 21.8828V21.8789C1.41406 38.9336 -4.26954 75.2852 3.6289 116.754V116.754ZM39.6719 43.0898C52.1719 30.875 51.5039 30.6406 52.8828 30.6406C53.3555 30.6406 53.8281 30.8203 54.1875 31.1797C104.375 81.6367 102.359 78.6719 102.359 80.1172C102.359 80.6211 102.176 81.0625 101.82 81.4219L89.9101 93.3281C70.9453 112.293 70.8711 142.992 89.7891 162.043L137.324 211.574C137.398 211.645 137.469 211.719 137.543 211.793C156.504 230.754 189.352 230.816 208.375 211.793L220.281 199.887C221 199.168 222.172 199.168 222.891 199.887C273.078 250.34 271.062 247.375 271.062 248.82C271.062 249.328 270.879 249.766 270.523 250.125L258.613 262.031C250.453 270.191 224.461 275.074 190.559 268.617C167.934 264.305 124.43 251.531 87.3008 214.402C50.1719 177.273 37.3984 133.77 33.0898 111.145C26.6289 77.2422 31.5117 51.2461 39.6719 43.0898V43.0898Z" fill="black"/>
</svg>
