<svg width="512" height="512" viewBox="0 0 512 512" fill="none" xmlns="http://www.w3.org/2000/svg">
<path d="M123.832 475.465C163.391 499.27 208.621 511.816 255.094 511.816C395.918 511.816 512 396.902 512 255.906C512 115.074 396.082 0 255.094 0C114.535 0 0.183594 114.801 0.183594 255.906C0.183594 303 12.7344 348.574 36.5352 388.164L0 512L123.832 475.465ZM30.1758 255.906C30.1758 131.336 131.074 29.9883 255.094 29.9883C380.215 29.9883 482.012 131.336 482.012 255.906C482.012 380.48 380.215 481.824 255.094 481.824C212.039 481.824 170.199 469.629 134.109 446.551L128.344 442.867L44.3555 467.648L69.1328 383.656L65.4492 377.895C42.3711 341.797 30.1758 299.617 30.1758 255.906V255.906Z" fill="black"/>
</svg>
